<svg xmlns="http://www.w3.org/2000/svg" xmlns:xlink="http://www.w3.org/1999/xlink" width="50" zoomAndPan="magnify" viewBox="0 0 37.5 37.499999" height="50" preserveAspectRatio="xMidYMid meet" version="1.0"><defs><clipPath id="e32ec810ba"><path d="M 0 11 L 37 11 L 37 30 L 0 30 Z M 0 11 " clip-rule="nonzero"/></clipPath><clipPath id="e804d1b1ba"><path d="M 2.492188 6.167969 L 36.527344 11.820312 L 33.335938 31.054688 L -0.699219 25.40625 Z M 2.492188 6.167969 " clip-rule="nonzero"/></clipPath><clipPath id="1cc37a011e"><path d="M 2.492188 6.167969 L 36.527344 11.820312 L 33.335938 31.054688 L -0.699219 25.40625 Z M 2.492188 6.167969 " clip-rule="nonzero"/></clipPath><clipPath id="2dec985390"><path d="M 11 21 L 17 21 L 17 28 L 11 28 Z M 11 21 " clip-rule="nonzero"/></clipPath><clipPath id="3de36574d8"><path d="M 2.492188 6.167969 L 36.527344 11.820312 L 33.335938 31.054688 L -0.699219 25.40625 Z M 2.492188 6.167969 " clip-rule="nonzero"/></clipPath><clipPath id="13be2ad85f"><path d="M 2.492188 6.167969 L 36.527344 11.820312 L 33.335938 31.054688 L -0.699219 25.40625 Z M 2.492188 6.167969 " clip-rule="nonzero"/></clipPath></defs><g clip-path="url(#e32ec810ba)"><g clip-path="url(#e804d1b1ba)"><g clip-path="url(#1cc37a011e)"><path fill="#00acee" d="M 0.964844 15.394531 L 36.527344 11.820312 L 22.726562 29.289062 L 14.011719 21.253906 L 36.46875 11.84375 L 12.914062 20.851562 L 10.515625 27.09375 L 9.105469 19.523438 L 36.464844 11.84375 L 8.714844 18.960938 Z M 0.964844 15.394531 " fill-opacity="1" fill-rule="evenodd"/></g></g></g><g clip-path="url(#2dec985390)"><g clip-path="url(#3de36574d8)"><g clip-path="url(#13be2ad85f)"><path fill="#00acee" d="M 11.152344 27.347656 L 16.175781 24.175781 L 13.699219 21.679688 Z M 11.152344 27.347656 " fill-opacity="1" fill-rule="evenodd"/></g></g></g></svg>