<svg xmlns="http://www.w3.org/2000/svg" xmlns:xlink="http://www.w3.org/1999/xlink" width="500" zoomAndPan="magnify" viewBox="0 0 375 225" height="300" preserveAspectRatio="xMidYMid meet" version="1.0"><defs><g/><clipPath id="9c3785ced0"><path d="M 17 83 L 217 83 L 217 189 L 17 189 Z M 17 83 " clip-rule="nonzero"/></clipPath><clipPath id="b5b1a7a410"><path d="M 17.148438 118.769531 L 198.117188 83.21875 L 216.550781 177.054688 L 35.582031 212.601562 Z M 17.148438 118.769531 " clip-rule="nonzero"/></clipPath><clipPath id="5ff6fc6240"><path d="M -242.753906 -98.019531 L 210.144531 -186.988281 L 279.175781 164.414062 L -173.722656 253.382812 Z M -242.753906 -98.019531 " clip-rule="nonzero"/></clipPath><clipPath id="26575e0171"><path d="M 17 83 L 217 83 L 217 126 L 17 126 Z M 17 83 " clip-rule="nonzero"/></clipPath><clipPath id="8faa422b78"><path d="M 17.148438 118.769531 L 198.117188 83.21875 L 216.550781 177.054688 L 35.582031 212.601562 Z M 17.148438 118.769531 " clip-rule="nonzero"/></clipPath><clipPath id="3f2f3aae66"><path d="M -242.753906 -98.019531 L 210.144531 -186.988281 L 279.175781 164.414062 L -173.722656 253.382812 Z M -242.753906 -98.019531 " clip-rule="nonzero"/></clipPath><clipPath id="5b599cd72a"><path d="M 160 40 L 356 40 L 356 148 L 160 148 Z M 160 40 " clip-rule="nonzero"/></clipPath><clipPath id="b7f616ca2c"><path d="M 355.558594 103.070312 L 183.714844 147.910156 L 160.066406 57.265625 L 331.90625 12.429688 Z M 355.558594 103.070312 " clip-rule="nonzero"/></clipPath><clipPath id="80a4eb123e"><path d="M 616.664062 293.773438 L 188 405.625 L 101.035156 72.324219 L 529.695312 -39.523438 Z M 616.664062 293.773438 " clip-rule="nonzero"/></clipPath><clipPath id="980f963666"><path d="M 160 108 L 356 108 L 356 148 L 160 148 Z M 160 108 " clip-rule="nonzero"/></clipPath><clipPath id="bb1b2d641b"><path d="M 355.558594 103.070312 L 183.714844 147.910156 L 160.066406 57.265625 L 331.90625 12.429688 Z M 355.558594 103.070312 " clip-rule="nonzero"/></clipPath><clipPath id="c4d0e35895"><path d="M 616.664062 293.773438 L 188 405.625 L 101.035156 72.324219 L 529.695312 -39.523438 Z M 616.664062 293.773438 " clip-rule="nonzero"/></clipPath><clipPath id="1fe8a4e1ea"><path d="M 332.5 111.976562 L 367.628906 111.976562 L 367.628906 162.714844 L 332.5 162.714844 Z M 332.5 111.976562 " clip-rule="nonzero"/></clipPath><clipPath id="a3b29fdaa1"><path d="M 3 76 L 68 76 L 68 109 L 3 109 Z M 3 76 " clip-rule="nonzero"/></clipPath><clipPath id="0aa61b27ee"><path d="M 5.917969 66.070312 L 67.527344 76.296875 L 61.613281 111.914062 L 0.00390625 101.6875 Z M 5.917969 66.070312 " clip-rule="nonzero"/></clipPath><clipPath id="ce8c6a5ee4"><path d="M 5.917969 66.070312 L 67.527344 76.296875 L 61.613281 111.914062 L 0.00390625 101.6875 Z M 5.917969 66.070312 " clip-rule="nonzero"/></clipPath><clipPath id="1f027abd26"><path d="M 21 94 L 31 94 L 31 106 L 21 106 Z M 21 94 " clip-rule="nonzero"/></clipPath><clipPath id="0b0a6902b8"><path d="M 5.917969 66.070312 L 67.527344 76.296875 L 61.613281 111.914062 L 0.00390625 101.6875 Z M 5.917969 66.070312 " clip-rule="nonzero"/></clipPath><clipPath id="03ca0c21d1"><path d="M 5.917969 66.070312 L 67.527344 76.296875 L 61.613281 111.914062 L 0.00390625 101.6875 Z M 5.917969 66.070312 " clip-rule="nonzero"/></clipPath></defs><g clip-path="url(#9c3785ced0)"><g clip-path="url(#b5b1a7a410)"><g clip-path="url(#5ff6fc6240)"><path fill="#00acee" d="M 164.773438 186.230469 L 162.226562 186.730469 L 161.433594 182.691406 C 165.476562 181.894531 169.238281 181.15625 173.144531 180.09375 L 174.222656 184.082031 C 171.097656 184.863281 167.929688 185.613281 164.773438 186.230469 Z M 154.09375 187.867188 C 149.960938 188.351562 145.8125 188.621094 141.652344 188.675781 L 141.585938 184.492188 C 145.523438 184.429688 149.546875 184.183594 153.535156 183.738281 Z M 182.265625 181.621094 L 180.984375 177.675781 C 184.691406 176.441406 188.484375 175.023438 192.257812 173.488281 L 193.820312 177.378906 C 189.847656 178.957031 185.929688 180.394531 182.101562 181.652344 Z M 133.554688 188.503906 C 129.3125 188.285156 125.3125 187.8125 121.242188 187.1875 L 121.910156 183.109375 C 125.8125 183.726562 129.84375 184.152344 133.796875 184.382812 Z M 201.265625 174.027344 L 199.503906 170.175781 C 203.03125 168.472656 206.660156 166.628906 210.222656 164.667969 L 212.269531 168.464844 C 208.457031 170.429688 204.757812 172.332031 201.265625 174.027344 Z M 113.207031 185.617188 C 109.191406 184.695312 105.230469 183.570312 101.328125 182.242188 L 102.621094 178.335938 C 106.4375 179.601562 110.3125 180.726562 114.140625 181.613281 Z M 219.097656 164.3125 L 216.976562 160.78125 C 220.3125 158.742188 223.738281 156.515625 227.109375 154.214844 L 229.417969 157.625 C 226.015625 159.972656 222.546875 162.207031 219.097656 164.3125 Z M 236.039062 152.839844 L 233.582031 149.546875 C 236.769531 147.15625 239.96875 144.640625 243.082031 142.097656 L 245.714844 145.230469 C 242.585938 147.902344 239.304688 150.4375 236.039062 152.839844 Z M 93.65625 179.300781 C 89.832031 177.75 86.101562 176.007812 82.464844 174.070312 L 84.351562 170.425781 C 87.957031 172.316406 91.613281 174.035156 95.21875 175.507812 Z M 251.875 139.824219 L 249.121094 136.714844 C 252.171875 134.058594 255.164062 131.328125 258.007812 128.503906 L 260.851562 131.429688 C 258.042969 134.457031 254.988281 137.28125 251.914062 140.027344 Z M 75.347656 170.136719 C 71.882812 168.089844 68.414062 165.832031 65.003906 163.4375 L 67.40625 160.070312 C 70.679688 162.40625 74.09375 164.589844 77.40625 166.5 Z M 58.457031 158.554688 C 55.332031 156.105469 52.117188 153.421875 49.015625 150.671875 L 51.773438 147.609375 C 54.820312 150.285156 57.9375 152.90625 61.015625 155.324219 Z M 43.214844 145.09375 C 40.316406 142.308594 37.433594 139.390625 34.605469 136.335938 L 37.632812 133.558594 C 40.394531 136.5 43.277344 139.417969 46.078125 142.140625 Z M 28.9375 130.566406 C 26.328125 127.550781 23.527344 124.410156 21.082031 121.152344 L 24.316406 118.585938 C 26.882812 121.820312 29.46875 124.921875 32.058594 127.855469 Z M 16.128906 114.738281 C 13.738281 111.558594 11.324219 108.253906 8.929688 104.820312 L 12.332031 102.472656 C 14.679688 105.875 17.042969 109.144531 19.425781 112.289062 Z M 4.460938 98.101562 C 2.257812 94.800781 0.0703125 91.367188 -2.140625 87.8125 L 1.382812 85.652344 C 3.558594 89.171875 5.738281 92.5625 7.917969 95.828125 Z M -6.308594 80.910156 C -8.375 77.453125 -10.40625 73.949219 -12.582031 70.347656 L -8.785156 68.300781 C -6.777344 71.894531 -4.746094 75.398438 -2.535156 78.742188 Z M -6.308594 80.910156 " fill-opacity="1" fill-rule="nonzero"/></g></g></g><g clip-path="url(#26575e0171)"><g clip-path="url(#8faa422b78)"><g clip-path="url(#3f2f3aae66)"><path fill="#00acee" d="M 266.601562 125.851562 L 263.613281 123.039062 C 266.21875 120.257812 267.613281 118.601562 267.652344 118.59375 L 270.78125 121.25 C 270.78125 121.25 269.351562 122.960938 266.601562 125.851562 Z M -16.355469 62.90625 C -17.296875 61.117188 -18.28125 59.296875 -19.230469 57.46875 L -22.234375 52.222656 L -18.445312 50.136719 L -15.609375 55.371094 C -14.65625 57.242188 -13.683594 59.191406 -12.742188 60.769531 Z M -235.917969 -94.003906 C -239.71875 -93.675781 -241.820312 -93.265625 -241.820312 -93.265625 L -242.613281 -97.304688 C -240.507812 -97.675781 -238.390625 -97.9375 -236.257812 -98.09375 Z M -235.917969 -94.003906 " fill-opacity="1" fill-rule="nonzero"/></g></g></g><g clip-path="url(#5b599cd72a)"><g clip-path="url(#b7f616ca2c)"><g clip-path="url(#80a4eb123e)"><path fill="#00acee" d="M 209.351562 44.703125 L 211.761719 44.074219 L 212.761719 47.90625 C 208.933594 48.90625 205.375 49.835938 201.695312 51.082031 L 200.425781 47.320312 C 203.371094 46.386719 206.367188 45.484375 209.351562 44.703125 Z M 219.488281 42.507812 C 223.421875 41.800781 227.378906 41.300781 231.359375 41.007812 L 231.671875 45.019531 C 227.90625 45.308594 224.0625 45.777344 220.269531 46.441406 Z M 192.867188 50.152344 L 194.328125 53.863281 C 190.847656 55.261719 187.296875 56.84375 183.773438 58.542969 L 182.046875 54.898438 C 185.761719 53.152344 189.429688 51.539062 193.019531 50.109375 Z M 239.128906 40.699219 C 243.207031 40.660156 247.066406 40.882812 251.003906 41.246094 L 250.605469 45.199219 C 246.828125 44.832031 242.941406 44.660156 239.144531 44.667969 Z M 175.109375 58.550781 L 177.027344 62.144531 C 173.746094 63.984375 170.382812 65.964844 167.085938 68.054688 L 164.898438 64.53125 C 168.433594 62.421875 171.867188 60.378906 175.109375 58.550781 Z M 258.796875 42.28125 C 262.699219 42.933594 266.558594 43.78125 270.375 44.828125 L 269.371094 48.652344 C 265.636719 47.664062 261.855469 46.804688 258.136719 46.179688 Z M 158.601562 68.917969 L 160.84375 72.179688 C 157.765625 74.335938 154.617188 76.671875 151.523438 79.074219 L 149.109375 75.9375 C 152.230469 73.488281 155.421875 71.140625 158.601562 68.917969 Z M 143.050781 80.917969 L 145.597656 83.9375 C 142.6875 86.417969 139.769531 89.019531 136.9375 91.640625 L 134.230469 88.785156 C 137.070312 86.039062 140.066406 83.417969 143.050781 80.917969 Z M 277.902344 47.203125 C 281.65625 48.46875 285.335938 49.925781 288.9375 51.574219 L 287.34375 55.179688 C 283.777344 53.574219 280.171875 52.140625 276.628906 50.933594 Z M 128.648438 94.335938 L 131.46875 97.164062 C 128.707031 99.890625 126 102.683594 123.441406 105.5625 L 120.546875 102.921875 C 123.054688 99.851562 125.816406 96.960938 128.597656 94.144531 Z M 295.984375 54.933594 C 299.429688 56.695312 302.886719 58.660156 306.296875 60.757812 L 304.191406 64.132812 C 300.917969 62.078125 297.519531 60.183594 294.230469 58.542969 Z M 312.855469 65.066406 C 315.996094 67.234375 319.238281 69.621094 322.371094 72.078125 L 319.910156 75.179688 C 316.832031 72.789062 313.691406 70.457031 310.597656 68.316406 Z M 328.257812 77.09375 C 331.203125 79.601562 334.136719 82.234375 337.027344 85 L 334.292969 87.84375 C 331.472656 85.179688 328.535156 82.546875 325.691406 80.097656 Z M 342.800781 90.207031 C 345.476562 92.949219 348.347656 95.800781 350.882812 98.785156 L 347.9375 101.4375 C 345.285156 98.484375 342.625 95.65625 339.96875 92.992188 Z M 356.011719 104.652344 C 358.488281 107.566406 360.996094 110.597656 363.496094 113.753906 L 360.375 116.203125 C 357.921875 113.078125 355.464844 110.074219 352.996094 107.199219 Z M 368.175781 119.941406 C 370.484375 122.984375 372.78125 126.152344 375.109375 129.433594 L 371.859375 131.710938 C 369.570312 128.460938 367.28125 125.332031 364.996094 122.328125 Z M 379.511719 135.816406 C 381.695312 139.011719 383.851562 142.257812 386.152344 145.589844 L 382.632812 147.773438 C 380.496094 144.445312 378.34375 141.199219 376.027344 138.117188 Z M 379.511719 135.816406 " fill-opacity="1" fill-rule="nonzero"/></g></g></g><g clip-path="url(#980f963666)"><g clip-path="url(#bb1b2d641b)"><g clip-path="url(#c4d0e35895)"><path fill="#00acee" d="M 115.367188 108.613281 L 118.398438 111.136719 C 116.066406 113.957031 114.828125 115.628906 114.789062 115.640625 L 111.636719 113.269531 C 111.636719 113.269531 112.902344 111.546875 115.367188 108.613281 Z M 390.207031 152.515625 C 391.210938 154.175781 392.265625 155.867188 393.28125 157.566406 L 396.472656 162.425781 L 392.964844 164.648438 L 389.9375 159.789062 C 388.914062 158.050781 387.867188 156.234375 386.871094 154.777344 Z M 609.875 290.316406 C 613.496094 289.78125 615.484375 289.261719 615.484375 289.261719 L 616.484375 293.097656 C 614.492188 293.574219 612.476562 293.949219 610.445312 294.222656 Z M 609.875 290.316406 " fill-opacity="1" fill-rule="nonzero"/></g></g></g><g fill="#00acee" fill-opacity="1"><g transform="translate(69.894356, 116.121933)"><g><path d="M 0.46875 0 L 14.296875 -31.59375 L 15 -31.59375 L 28.84375 0 L 23.765625 0 L 20.265625 -8.390625 L 6.4375 -8.390625 L 2.984375 0 Z M 7.125 -10.15625 L 19.515625 -10.15625 L 13.375 -25.25 Z M 7.125 -10.15625 "/></g></g></g><g fill="#00acee" fill-opacity="1"><g transform="translate(99.204306, 116.121933)"><g><path d="M 14.71875 0 L 10.203125 0 L 10.203125 -28.609375 C 9.148438 -28.859375 8.09375 -28.984375 7.03125 -28.984375 L 0.75 -27.53125 L 0.46875 -30.84375 L 24.46875 -30.84375 L 24.234375 -27.53125 L 17.890625 -28.984375 C 16.835938 -28.984375 15.78125 -28.859375 14.71875 -28.609375 Z M 14.71875 0 "/></g></g></g><g fill="#00acee" fill-opacity="1"><g transform="translate(124.134074, 116.121933)"><g><path d="M 4.1875 0 L 4.1875 -30.84375 L 22.875 -30.84375 L 22.40625 -27.71875 L 13.75 -29.171875 C 12.226562 -29.171875 10.550781 -28.90625 8.71875 -28.375 L 8.71875 -17.046875 L 19.0625 -17.046875 L 19.0625 -15.28125 L 8.71875 -15.28125 L 8.71875 -1.671875 L 23.15625 -3.125 L 22.6875 0 Z M 4.1875 0 "/></g></g></g><g fill="#00acee" fill-opacity="1"><g transform="translate(150.321973, 116.121933)"><g><path d="M 8.765625 -14.71875 L 8.765625 0 L 4.1875 0 L 4.1875 -30.84375 L 14.25 -30.84375 C 17.394531 -30.84375 19.96875 -30.144531 21.96875 -28.75 C 23.96875 -27.351562 24.96875 -25.507812 24.96875 -23.21875 C 24.96875 -20.9375 24.164062 -19.132812 22.5625 -17.8125 C 20.96875 -16.5 18.804688 -15.59375 16.078125 -15.09375 L 28.5625 0 L 23.15625 0.65625 L 12.34375 -14.71875 Z M 8.765625 -16.125 L 11.734375 -16.125 C 17.328125 -16.125 20.125 -18.328125 20.125 -22.734375 C 20.125 -23.484375 19.9375 -24.320312 19.5625 -25.25 C 18.851562 -27.207031 17.332031 -28.5 15 -29.125 C 12.882812 -29.125 10.804688 -28.859375 8.765625 -28.328125 Z M 8.765625 -16.125 "/></g></g></g><g fill="#00acee" fill-opacity="1"><g transform="translate(180.051303, 116.121933)"><g><path d="M 8.765625 -14.71875 L 8.765625 0 L 4.1875 0 L 4.1875 -30.84375 L 14.25 -30.84375 C 17.394531 -30.84375 19.96875 -30.144531 21.96875 -28.75 C 23.96875 -27.351562 24.96875 -25.507812 24.96875 -23.21875 C 24.96875 -20.9375 24.164062 -19.132812 22.5625 -17.8125 C 20.96875 -16.5 18.804688 -15.59375 16.078125 -15.09375 L 28.5625 0 L 23.15625 0.65625 L 12.34375 -14.71875 Z M 8.765625 -16.125 L 11.734375 -16.125 C 17.328125 -16.125 20.125 -18.328125 20.125 -22.734375 C 20.125 -23.484375 19.9375 -24.320312 19.5625 -25.25 C 18.851562 -27.207031 17.332031 -28.5 15 -29.125 C 12.882812 -29.125 10.804688 -28.859375 8.765625 -28.328125 Z M 8.765625 -16.125 "/></g></g></g><g fill="#00acee" fill-opacity="1"><g transform="translate(209.780634, 116.121933)"><g><path d="M 8.484375 -30.84375 L 8.484375 0 L 4.1875 0 L 4.1875 -30.84375 Z M 8.484375 -30.84375 "/></g></g></g><g fill="#00acee" fill-opacity="1"><g transform="translate(222.455202, 116.121933)"><g><path d="M 7.546875 -25.484375 C 7.546875 -24.117188 8.082031 -22.851562 9.15625 -21.6875 C 10.226562 -20.519531 11.53125 -19.492188 13.0625 -18.609375 C 14.601562 -17.722656 16.132812 -16.820312 17.65625 -15.90625 C 19.175781 -14.988281 20.472656 -13.863281 21.546875 -12.53125 C 22.617188 -11.195312 23.15625 -9.722656 23.15625 -8.109375 C 23.15625 -5.554688 22.210938 -3.472656 20.328125 -1.859375 C 18.453125 -0.242188 15.914062 0.5625 12.71875 0.5625 C 9.519531 0.5625 6.351562 -0.046875 3.21875 -1.265625 L 3.21875 -3.453125 C 6.382812 -1.867188 9.078125 -1.078125 11.296875 -1.078125 C 13.515625 -1.078125 15.242188 -1.617188 16.484375 -2.703125 C 17.734375 -3.785156 18.359375 -5.289062 18.359375 -7.21875 C 18.359375 -8.519531 17.84375 -9.707031 16.8125 -10.78125 C 15.789062 -11.851562 14.550781 -12.785156 13.09375 -13.578125 C 11.632812 -14.367188 10.171875 -15.179688 8.703125 -16.015625 C 7.242188 -16.859375 6.003906 -17.925781 4.984375 -19.21875 C 3.960938 -20.507812 3.453125 -22.070312 3.453125 -23.90625 C 3.453125 -25.738281 4.265625 -27.445312 5.890625 -29.03125 C 7.523438 -30.613281 9.957031 -31.40625 13.1875 -31.40625 C 15.300781 -31.40625 17.972656 -30.921875 21.203125 -29.953125 L 20.734375 -26.796875 C 16.535156 -28.597656 12.945312 -29.5 9.96875 -29.5 C 8.351562 -28.71875 7.546875 -27.378906 7.546875 -25.484375 Z M 7.546875 -25.484375 "/></g></g></g><g fill="#00acee" fill-opacity="1"><g transform="translate(248.363517, 116.121933)"><g><path d="M 7.546875 -25.484375 C 7.546875 -24.117188 8.082031 -22.851562 9.15625 -21.6875 C 10.226562 -20.519531 11.53125 -19.492188 13.0625 -18.609375 C 14.601562 -17.722656 16.132812 -16.820312 17.65625 -15.90625 C 19.175781 -14.988281 20.472656 -13.863281 21.546875 -12.53125 C 22.617188 -11.195312 23.15625 -9.722656 23.15625 -8.109375 C 23.15625 -5.554688 22.210938 -3.472656 20.328125 -1.859375 C 18.453125 -0.242188 15.914062 0.5625 12.71875 0.5625 C 9.519531 0.5625 6.351562 -0.046875 3.21875 -1.265625 L 3.21875 -3.453125 C 6.382812 -1.867188 9.078125 -1.078125 11.296875 -1.078125 C 13.515625 -1.078125 15.242188 -1.617188 16.484375 -2.703125 C 17.734375 -3.785156 18.359375 -5.289062 18.359375 -7.21875 C 18.359375 -8.519531 17.84375 -9.707031 16.8125 -10.78125 C 15.789062 -11.851562 14.550781 -12.785156 13.09375 -13.578125 C 11.632812 -14.367188 10.171875 -15.179688 8.703125 -16.015625 C 7.242188 -16.859375 6.003906 -17.925781 4.984375 -19.21875 C 3.960938 -20.507812 3.453125 -22.070312 3.453125 -23.90625 C 3.453125 -25.738281 4.265625 -27.445312 5.890625 -29.03125 C 7.523438 -30.613281 9.957031 -31.40625 13.1875 -31.40625 C 15.300781 -31.40625 17.972656 -30.921875 21.203125 -29.953125 L 20.734375 -26.796875 C 16.535156 -28.597656 12.945312 -29.5 9.96875 -29.5 C 8.351562 -28.71875 7.546875 -27.378906 7.546875 -25.484375 Z M 7.546875 -25.484375 "/></g></g></g><g fill="#00acee" fill-opacity="1"><g transform="translate(274.271833, 116.121933)"><g><path d="M 0.46875 0 L 14.296875 -31.59375 L 15 -31.59375 L 28.84375 0 L 23.765625 0 L 20.265625 -8.390625 L 6.4375 -8.390625 L 2.984375 0 Z M 7.125 -10.15625 L 19.515625 -10.15625 L 13.375 -25.25 Z M 7.125 -10.15625 "/></g></g></g><g fill="#00acee" fill-opacity="1"><g transform="translate(113.553067, 145.893858)"><g><path d="M 8.957031 -19.730469 L 8.957031 -21.605469 L 7.519531 -21.605469 C 6.078125 -21.605469 5.070312 -21.230469 4.464844 -20.539062 C 3.859375 -19.847656 3.570312 -18.839844 3.570312 -17.570312 L 3.570312 -12.675781 L 1.007812 -12.675781 L 1.007812 -10.800781 L 3.570312 -10.800781 L 3.570312 0 L 5.589844 0 L 5.589844 -10.800781 L 8.957031 -10.800781 L 8.957031 -12.675781 L 5.589844 -12.675781 L 5.589844 -18.148438 C 5.589844 -18.578125 5.675781 -18.953125 5.90625 -19.269531 C 6.105469 -19.558594 6.539062 -19.730469 7.230469 -19.730469 Z M 8.957031 -19.730469 "/></g></g></g><g fill="#00acee" fill-opacity="1"><g transform="translate(146.421291, 145.893858)"><g><path d="M 12.242188 -6.335938 C 12.242188 -5.097656 11.808594 -4.003906 10.945312 -3.109375 C 10.082031 -2.1875 9.015625 -1.726562 7.777344 -1.726562 C 6.511719 -1.726562 5.445312 -2.1875 4.582031 -3.109375 C 3.714844 -4.003906 3.3125 -5.097656 3.3125 -6.335938 C 3.3125 -7.546875 3.714844 -8.640625 4.582031 -9.5625 C 5.445312 -10.484375 6.511719 -10.945312 7.777344 -10.945312 C 9.015625 -10.945312 10.082031 -10.484375 10.945312 -9.5625 C 11.808594 -8.640625 12.242188 -7.546875 12.242188 -6.335938 Z M 14.257812 0 L 14.257812 -12.675781 L 12.242188 -12.675781 L 12.242188 -10.484375 C 12.128906 -10.65625 11.984375 -10.800781 11.867188 -10.945312 C 10.65625 -12.269531 9.1875 -12.960938 7.460938 -12.960938 C 5.703125 -12.960938 4.234375 -12.269531 3.023438 -10.945312 C 1.871094 -9.621094 1.296875 -8.09375 1.296875 -6.335938 C 1.296875 -4.550781 1.871094 -3.023438 3.023438 -1.726562 C 4.234375 -0.375 5.703125 0.289062 7.460938 0.289062 C 9.1875 0.289062 10.65625 -0.375 11.867188 -1.726562 C 11.984375 -1.84375 12.128906 -1.988281 12.242188 -2.160156 L 12.242188 0 Z M 10.886719 -19.617188 L 8.410156 -19.617188 L 6.105469 -15.496094 L 7.71875 -15.496094 Z M 10.886719 -19.617188 "/></g></g></g><g fill="#00acee" fill-opacity="1"><g transform="translate(185.885072, 145.893858)"><g><path d="M 14 -8.125 C 13.597656 -9.535156 12.820312 -10.6875 11.695312 -11.578125 C 10.515625 -12.472656 9.21875 -12.933594 7.777344 -12.933594 C 5.960938 -12.933594 4.40625 -12.269531 3.167969 -10.976562 C 1.902344 -9.679688 1.296875 -8.125 1.296875 -6.335938 C 1.296875 -4.523438 1.902344 -2.996094 3.167969 -1.671875 C 3.746094 -1.066406 4.40625 -0.574219 5.214844 -0.230469 C 5.992188 0.113281 6.796875 0.289062 7.605469 0.289062 C 8.410156 0.289062 9.132812 0.203125 9.765625 -0.0273438 C 11.78125 -0.75 13.164062 -2.101562 13.882812 -4.148438 L 11.609375 -4.148438 C 11.207031 -3.429688 10.6875 -2.851562 9.996094 -2.449219 C 9.304688 -2.015625 8.585938 -1.816406 7.777344 -1.816406 C 6.539062 -1.816406 5.5 -2.246094 4.636719 -3.140625 C 3.773438 -4.03125 3.371094 -5.097656 3.371094 -6.335938 C 3.371094 -7.519531 3.773438 -8.585938 4.636719 -9.476562 C 5.039062 -9.878906 5.5 -10.226562 6.050781 -10.457031 C 6.566406 -10.6875 7.230469 -10.832031 7.980469 -10.832031 C 8.726562 -10.832031 9.449219 -10.570312 10.195312 -10.082031 C 10.917969 -9.5625 11.464844 -8.929688 11.808594 -8.125 Z M 14 -8.125 "/></g></g></g><g fill="#00acee" fill-opacity="1"><g transform="translate(223.937575, 145.893858)"><g><path d="M 4.207031 -17.054688 C 3.945312 -17.285156 3.628906 -17.425781 3.285156 -17.425781 C 2.9375 -17.425781 2.621094 -17.285156 2.390625 -17.054688 C 2.132812 -16.792969 2.015625 -16.476562 2.015625 -16.132812 C 2.015625 -15.785156 2.132812 -15.46875 2.390625 -15.238281 C 2.621094 -14.980469 2.9375 -14.863281 3.285156 -14.863281 C 3.628906 -14.863281 3.945312 -14.980469 4.207031 -15.238281 C 4.4375 -15.46875 4.582031 -15.785156 4.582031 -16.132812 C 4.582031 -16.476562 4.4375 -16.792969 4.207031 -17.054688 Z M 4.320312 0 L 4.320312 -12.675781 L 2.304688 -12.675781 L 2.304688 0 Z M 4.320312 0 "/></g></g></g><g fill="#00acee" fill-opacity="1"><g transform="translate(253.580033, 145.893858)"><g><path d="M 4.175781 0 L 4.175781 -21.605469 L 2.160156 -21.605469 L 2.160156 0 Z M 4.175781 0 "/></g></g></g><g clip-path="url(#1fe8a4e1ea)"><path fill="#00acee" d="M 350.0625 111.976562 C 340.367188 111.976562 332.503906 119.929688 332.503906 129.734375 C 332.503906 143.054688 350.0625 162.714844 350.0625 162.714844 C 350.0625 162.714844 367.625 143.054688 367.625 129.734375 C 367.625 119.929688 359.757812 111.976562 350.0625 111.976562 Z M 350.0625 136.078125 C 346.601562 136.078125 343.792969 133.234375 343.792969 129.734375 C 343.792969 126.234375 346.601562 123.390625 350.0625 123.390625 C 353.523438 123.390625 356.335938 126.234375 356.335938 129.734375 C 356.335938 133.234375 353.523438 136.078125 350.0625 136.078125 Z M 350.0625 136.078125 " fill-opacity="1" fill-rule="nonzero"/></g><g clip-path="url(#a3b29fdaa1)"><g clip-path="url(#0aa61b27ee)"><g clip-path="url(#ce8c6a5ee4)"><path fill="#00acee" d="M 3.085938 83.148438 L 67.519531 76.304688 L 42.410156 108.710938 L 26.679688 93.90625 L 67.421875 76.351562 L 24.695312 93.167969 L 20.308594 104.730469 L 17.804688 90.738281 L 67.414062 76.347656 L 17.101562 89.695312 Z M 3.085938 83.148438 " fill-opacity="1" fill-rule="evenodd"/></g></g></g><g clip-path="url(#1f027abd26)"><g clip-path="url(#0b0a6902b8)"><g clip-path="url(#03ca0c21d1)"><path fill="#00acee" d="M 21.460938 105.199219 L 30.578125 99.292969 L 26.113281 94.695312 Z M 21.460938 105.199219 " fill-opacity="1" fill-rule="evenodd"/></g></g></g></svg>